<?xml version="1.0" encoding="UTF-8"?>
<svg width="22px" height="23px" viewBox="0 0 22 23" version="1.1" xmlns="http://www.w3.org/2000/svg" xmlns:xlink="http://www.w3.org/1999/xlink">
    <!-- Generator: sketchtool 53.2 (72643) - https://sketchapp.com -->
    <title>B08F42D7-B1EE-48E3-9461-E9D07F274D0E</title>
    <desc>Created with sketchtool.</desc>
    <g id="Page-1" stroke="none" stroke-width="1" fill="none" fill-rule="evenodd">
        <g id="vitalinea-desktop" transform="translate(-709.000000, -698.000000)" fill="#FFFFFF">
            <g id="scroll" transform="translate(720.000000, 709.000000) rotate(-90.000000) translate(-720.000000, -709.000000) translate(695.000000, 684.000000)">
                <path d="M34.4069535,23.4650307 L18.438585,23.4650307 L25.5416993,16.6202317 C26.1639774,16.0209771 26.1639774,15.0488728 25.5416993,14.4497069 C24.9194213,13.8500977 23.9105654,13.8500977 23.2892074,14.4497069 L13.4667085,23.9145603 C12.8444305,24.5138148 12.8444305,25.4860079 13.4667085,26.0850851 L23.2892074,35.5503818 C23.6002544,35.850275 24.0078999,36 24.4154534,36 C24.8230068,36 25.2306523,35.850275 25.5416993,35.5503818 C26.1639774,34.9511272 26.1639774,33.9790229 25.5416993,33.3799456 L18.438585,26.534792 L34.4069535,26.534792 C35.2866434,26.534792 36,25.8475108 36,24.999867 C36,24.1522232 35.2867354,23.4650307 34.4069535,23.4650307 Z" id="flecha"></path>
            </g>
        </g>
    </g>
</svg>